<?xml version="1.0" encoding="UTF-8" standalone="no"?>
<!DOCTYPE svg PUBLIC "-//W3C//DTD SVG 1.1//EN" "http://www.w3.org/Graphics/SVG/1.1/DTD/svg11.dtd">
<svg width="1024.00" height="1024.00" viewBox="0.00 0.00 1024.00 1024.00" xmlns="http://www.w3.org/2000/svg" xmlns:xlink="http://www.w3.org/1999/xlink">
<g stroke-linecap="round" id="D">
<path d="M345.20,282.63 C345.20,282.63 346.30,281.73 346.30,281.73 C346.30,281.73 346.11,283.77 346.11,283.77" fill="none" stroke="rgb(96, 165, 97)" stroke-width="7.00" stroke-opacity="1.00" stroke-linejoin="round"/>
<path d="M300.25,270.84" fill="none" stroke="rgb(96, 165, 97)" stroke-width="100.00" stroke-opacity="1.00" stroke-linejoin="round"/>
<path d="M299.79,271.23 L301.48,827.09" fill="none" stroke="rgb(96, 165, 97)" stroke-width="100.00" stroke-opacity="1.00" stroke-linejoin="round"/>
<path d="M301.48,827.18" fill="none" stroke="rgb(96, 165, 97)" stroke-width="100.00" stroke-opacity="1.00" stroke-linejoin="round"/>
<path d="M301.65,272.83 C301.65,272.83 308.78,267.58 308.78,267.58 C312.68,265.97 316.30,264.98 321.76,263.95 C337.85,261.13 366.09,256.88 371.05,256.73 C372.87,256.69 389.88,257.23 397.59,257.31 C402.09,257.41 420.93,259.22 425.63,259.92 C441.33,262.48 462.01,267.71 481.57,273.64 C499.80,279.68 523.56,289.09 536.16,295.03 C544.29,299.01 556.15,305.37 563.21,309.22 C567.61,311.70 580.09,319.29 586.50,323.98 C593.04,328.91 608.40,340.85 612.04,344.00 C615.93,347.39 627.95,359.06 632.88,364.17 C639.55,371.33 645.98,378.89 652.70,387.58 C657.71,394.32 666.62,406.92 670.35,413.13 C673.96,419.14 678.83,428.45 683.37,438.00 C687.19,446.31 692.13,458.15 693.75,463.13 C695.13,467.39 700.02,485.61 702.09,493.62 C705.43,507.63 710.27,538.78 711.13,552.21 C711.54,560.02 711.89,572.63 711.68,583.11 C711.34,592.70 710.36,606.98 709.45,613.77 C708.95,617.48 705.05,639.72 703.94,644.41 C702.81,649.16 697.97,665.62 695.56,671.82 C693.41,677.33 683.94,696.87 682.06,700.30 C678.70,706.39 671.29,716.78 665.62,723.37 C661.02,728.72 647.92,741.72 643.09,745.89 C636.09,751.84 627.59,758.33 619.76,763.86 C613.85,767.86 597.85,777.37 594.09,779.37 C588.39,782.32 574.99,788.62 567.63,791.95 C562.99,793.97 552.40,798.21 542.10,801.65 C526.40,806.46 495.48,815.46 481.54,818.89 C466.45,822.30 430.44,829.58 421.85,830.80 C406.04,832.71 364.76,836.94 359.89,837.11 C356.92,837.21 340.67,836.43 332.35,835.90 C318.06,834.77 303.64,830.58 302.51,830.25" fill="none" stroke="rgb(96, 165, 97)" stroke-width="100.00" stroke-opacity="1.00" stroke-linejoin="round"/>
<path d="M371.33,273.75 C371.31,273.93 371.29,274.09 371.28,274.25 C371.27,274.41 371.25,274.78 371.22,275.36" fill="none" stroke="rgb(96, 165, 97)" stroke-width="4.00" stroke-opacity="1.00" stroke-linejoin="round"/>
</g>
<g stroke-linecap="round" id="splash">
<path d="M664.26,256.54 C664.26,256.54 663.67,257.69 663.67,257.69 C663.93,254.82 665.04,248.67 666.02,245.29 C667.56,240.07 674.77,223.22 677.76,216.34 C680.38,210.60 685.29,200.53 689.81,192.88 C694.54,185.12 701.84,175.24 705.77,171.14 C710.87,165.85 723.53,155.46 729.68,151.93 C736.03,148.34 750.66,142.63 758.11,140.81 C763.75,139.45 778.42,138.04 784.76,138.37 C788.07,138.56 795.00,139.71 797.11,140.42 C801.86,142.06 806.91,144.99 809.61,147.63 C812.37,150.40 815.25,155.28 816.46,158.63 C817.68,162.09 818.32,168.71 817.74,172.29 C817.17,175.60 814.83,181.68 813.19,184.27 C810.20,188.94 800.88,198.61 796.33,202.42 C793.62,204.67 779.36,213.46 772.69,216.28 C769.03,217.81 752.01,223.76 745.27,226.08 C731.27,230.29 703.75,239.04 692.08,243.64 C678.12,249.42 666.22,257.83 664.70,258.98 C665.34,257.46 675.14,246.09 680.04,241.33 C682.51,238.94 696.42,226.49 702.12,222.21 C707.91,217.88 718.52,211.56 729.00,206.00 C753.19,193.26 772.22,184.13 780.70,179.68 C784.45,177.65 791.60,173.44 792.17,173.02 C793.77,171.83 795.37,169.93 795.52,168.89 C795.61,167.89 794.47,165.48 793.43,164.73 C792.20,163.89 789.12,163.07 787.28,163.04 C781.22,163.06 765.42,167.18 758.42,169.91 C754.72,171.36 738.94,178.58 733.12,182.25 C727.89,185.57 718.88,192.63 713.07,198.39 C709.56,201.98 707.03,204.77 704.27,208.19 C703.50,209.14 701.22,211.89 700.36,212.90" fill="none" stroke="rgb(255, 196, 61)" stroke-width="40.00" stroke-opacity="1.00" stroke-linejoin="round"/>
<path d="M610.13,230.06 C610.14,230.08 610.12,230.01 610.11,229.99 C608.00,224.59 603.07,210.67 600.79,204.00 C595.23,186.06 592.39,169.07 592.06,163.49 C591.85,159.57 592.79,153.00 593.31,150.45 C594.06,146.86 595.71,142.46 597.21,140.37 C598.75,138.28 602.18,134.79 603.83,133.70 C605.62,132.55 610.37,130.81 611.88,130.70 C613.68,130.59 616.11,131.33 617.86,132.48 C619.41,133.54 622.35,137.15 623.53,139.65 C624.71,142.22 626.24,148.23 626.60,151.66 C627.31,158.94 625.80,172.65 624.20,179.47 C623.44,182.68 618.71,199.86 617.42,206.68 C616.73,210.21 613.13,226.68 613.03,227.17 C613.00,227.31 612.93,227.47 612.82,227.64" fill="none" stroke="rgb(255, 196, 61)" stroke-width="40.00" stroke-opacity="1.00" stroke-linejoin="round"/>
<path d="M712.76,314.90 C714.39,315.97 721.81,318.66 729.35,320.77 C738.35,323.19 752.28,324.91 757.98,324.94 C761.53,324.93 768.20,324.38 770.93,323.82 C774.05,323.15 780.79,319.99 782.52,318.54 C785.12,316.32 788.39,311.17 788.71,308.57 C788.85,307.09 788.60,305.00 788.10,303.95 C787.44,302.68 785.53,300.72 784.09,299.97 C781.55,298.70 776.82,297.78 774.23,297.65 C770.38,297.48 764.18,297.74 761.44,298.26 C756.88,299.16 740.74,304.42 734.12,306.62 C727.39,308.88 718.43,312.75 714.20,314.60 C713.58,314.88 712.96,315.16 712.34,315.44" fill="none" stroke="rgb(255, 196, 61)" stroke-width="40.00" stroke-opacity="1.00" stroke-linejoin="round"/>
</g>
<g stroke-linecap="round" transform="translate(-60.00, 22.00)" id="orange">
<path d="M455.74,749.26 C454.89,749.16 454.04,749.06 453.19,748.97 C450.39,748.61 444.28,747.92 440.61,748.49 C437.81,748.95 432.82,750.82 430.32,752.26 C427.89,753.69 423.21,757.28 421.30,759.19 C418.32,762.22 411.23,773.43 409.62,778.18 C407.92,783.34 406.70,795.55 407.20,801.56 C407.71,807.15 410.73,816.30 413.25,820.55 C414.88,823.23 418.90,828.15 422.23,830.60 C425.57,832.99 430.74,834.91 433.82,835.23 C437.01,835.52 444.32,834.98 444.85,835.03 C445.36,835.07 451.38,838.67 454.61,839.87 C457.52,840.93 462.98,841.98 465.09,841.96 C468.15,841.91 475.10,840.34 477.91,839.16 C480.11,838.21 483.75,835.43 484.90,833.88 C485.91,832.50 487.47,830.04 488.02,829.04 C488.60,828.76 492.53,830.86 494.71,831.44 C496.57,831.90 506.02,831.82 507.31,831.76 C509.92,831.61 515.76,829.92 518.35,827.98 C521.14,825.86 524.78,821.78 525.15,820.08 C525.33,818.98 525.61,817.45 525.87,817.13 C526.22,816.71 529.86,812.75 530.74,810.99 C531.73,808.94 532.45,803.29 532.40,800.69 C532.23,794.85 530.00,784.61 528.01,779.88 C525.08,773.00 517.40,759.91 514.32,756.81 C511.30,753.84 500.46,746.24 495.98,744.54 C493.49,743.61 489.03,742.57 486.62,742.37 C484.47,742.21 480.35,742.52 477.74,743.17 C473.60,744.25 467.86,747.56 465.14,749.33 C462.19,750.79 455.91,750.83 450.86,750.31 C450.09,750.23 449.32,750.15 448.56,750.07" fill="none" stroke="rgb(255, 196, 61)" stroke-width="15.00" stroke-opacity="1.00" stroke-linejoin="round"/>
<path d="M469.92,778.04 C469.34,778.16 468.93,778.21 468.67,778.18 C468.59,778.17 460.71,775.24 457.11,774.54 C454.94,774.14 450.32,774.26 448.45,774.64 C446.79,775.01 444.86,775.91 443.52,776.99 C441.47,778.71 438.20,784.44 437.24,786.96 C436.39,789.34 435.99,795.07 436.41,798.82 C436.78,801.94 438.31,807.81 439.26,809.63 C440.10,811.18 442.87,813.77 444.49,814.41 C449.32,816.27 460.19,817.19 464.50,816.24 C467.18,815.65 472.65,814.09 474.09,813.49 C475.69,812.81 481.80,809.32 482.53,809.08 C484.60,808.49 496.04,811.59 499.44,811.66 C502.26,811.69 506.35,810.96 507.60,810.34 C508.68,809.77 510.58,807.96 511.42,806.51 C512.38,804.81 513.20,800.97 513.29,798.94 C513.36,796.55 512.67,793.47 511.47,791.40 C509.98,788.95 506.40,785.29 503.08,782.62 C497.14,777.85 491.51,774.36 486.90,772.04 C482.51,769.88 474.83,767.38 469.99,766.49" fill="none" stroke="rgb(255, 196, 61)" stroke-width="50.00" stroke-opacity="1.00" stroke-linejoin="round"/>
</g>
<g stroke-linecap="round" transform="translate(-60.00, 22.00)" id="vert">
<path d="M453.64,718.58 C453.12,718.67 452.08,719.65 450.77,722.27 C449.02,725.85 447.35,730.58 446.65,733.97 C446.11,736.76 445.94,742.51 446.40,745.82 C447.53,753.42 451.47,758.17 453.51,760.32" fill="none" stroke="rgb(96, 165, 97)" stroke-width="7.00" stroke-opacity="1.00" stroke-linejoin="round"/>
<path d="M453.23,717.17 C453.36,717.13 453.69,717.08 454.33,717.10 C457.68,717.20 461.09,717.60 461.23,717.75 C461.27,718.22 458.59,730.54 458.55,735.48 C458.54,738.53 458.94,745.22 459.44,747.77 C460.50,753.07 463.78,757.57 464.92,758.84 C464.93,758.85 464.97,758.86 464.96,758.85" fill="none" stroke="rgb(96, 165, 97)" stroke-width="7.00" stroke-opacity="1.00" stroke-linejoin="round"/>
<path d="M456.76,719.74 C456.51,719.87 455.72,720.50 455.23,721.12 C453.62,723.15 451.40,728.89 450.72,731.77 C450.07,734.64 449.63,739.55 449.64,742.30 C449.69,746.39 450.42,751.21 451.53,754.49 C452.83,758.12 453.98,760.20 455.18,761.94 C455.00,761.98 452.01,762.25 451.07,763.39 C450.78,763.77 451.37,765.36 452.33,765.52 C454.23,765.81 465.68,764.63 465.78,764.61 C466.77,764.46 467.68,763.97 467.92,763.47 C468.13,762.97 467.98,761.82 467.63,761.36 C466.81,760.41 460.25,760.18 459.53,759.61 C458.67,758.87 457.04,755.00 456.14,751.41 C455.14,747.28 454.76,741.21 455.26,737.64 C455.83,733.86 458.31,724.86 458.37,723.59 C458.22,723.58 457.94,723.86 457.82,723.95 C457.74,724.00 457.60,724.08 457.37,724.18" fill="none" stroke="rgb(96, 165, 97)" stroke-width="7.00" stroke-opacity="1.00" stroke-linejoin="round"/>
<path d="M463.47,759.04 C463.58,758.95 463.70,758.90 463.97,758.90 C465.66,758.96 468.89,759.30 469.84,760.16 C470.30,760.59 470.60,761.21 470.70,761.72 C470.22,762.94 467.47,764.62 464.83,764.97 C462.89,765.20 455.93,765.19 453.47,764.85 C450.00,764.34 448.84,763.14 449.03,762.44 C449.17,761.98 449.89,761.20 450.38,761.00 C450.55,760.93 450.89,760.84 451.42,760.72" fill="none" stroke="rgb(96, 165, 97)" stroke-width="7.00" stroke-opacity="1.00" stroke-linejoin="round"/>
<path d="M446.94,767.45 C445.76,769.28 444.19,773.45 442.88,778.18 C440.70,786.75 438.34,798.31 437.83,804.05 C437.28,810.56 437.78,821.60 439.08,828.25 C439.81,831.95 441.98,838.43 441.84,838.56 C441.82,838.56 441.83,838.53 441.87,838.47" fill="none" stroke="rgb(96, 165, 97)" stroke-width="2.00" stroke-opacity="1.00" stroke-linejoin="round"/>
<path d="M469.96,768.66 C469.98,768.64 470.00,768.63 470.02,768.62 C470.04,768.62 470.09,768.60 470.17,768.58 C471.00,768.96 473.39,773.08 475.60,778.07 C478.42,784.62 489.55,823.60 490.48,831.04 C490.52,831.40 490.61,832.42 490.75,834.10" fill="none" stroke="rgb(96, 165, 97)" stroke-width="2.00" stroke-opacity="1.00" stroke-linejoin="round"/>
<path d="M474.82,757.65 C474.90,757.74 475.44,757.85 478.61,758.40 C484.97,759.55 496.50,764.06 500.89,766.70 C503.86,768.52 508.60,772.02 511.20,774.52 C515.70,778.94 522.11,788.56 524.14,792.95 C526.99,799.14 528.84,805.52 529.91,812.59 C529.98,813.10 530.37,814.68 530.40,814.83 C530.40,814.86 530.40,814.88 530.39,814.88" fill="none" stroke="rgb(96, 165, 97)" stroke-width="2.00" stroke-opacity="1.00" stroke-linejoin="round"/>
<path d="M472.59,754.64 C472.59,754.52 472.70,753.97 472.89,753.47 C473.78,751.20 477.59,746.41 480.54,744.27 C483.14,742.42 487.30,740.97 489.19,740.82 C490.16,740.75 493.37,740.63 493.73,740.64 C493.85,740.64 493.93,740.67 493.97,740.70" fill="none" stroke="rgb(96, 165, 97)" stroke-width="2.00" stroke-opacity="1.00" stroke-linejoin="round"/>
<path d="M444.30,760.61 C444.24,760.62 444.05,760.60 443.88,760.55 C440.67,759.77 428.16,763.21 422.89,765.39 C419.60,766.77 416.90,768.50 411.79,772.79 C408.60,775.51 405.47,779.51 405.30,779.83 C405.11,780.19 404.63,781.28 403.85,783.10" fill="none" stroke="rgb(96, 165, 97)" stroke-width="2.00" stroke-opacity="1.00" stroke-linejoin="round"/>
</g>
<g stroke-linecap="round" id="orange">
<path d="M348.41,851.83 C346.65,851.50 343.92,851.65 341.50,852.36 C339.87,852.85 336.04,855.15 334.22,857.64 C332.69,859.78 331.47,864.54 331.54,867.81 C331.63,870.88 334.37,876.63 335.70,878.13 C337.98,880.63 342.78,884.29 345.67,885.05 C348.05,885.63 352.98,884.93 355.17,883.68 C358.30,881.84 362.63,877.13 363.28,875.34 C363.96,873.29 364.12,868.27 363.49,865.82 C362.92,863.74 360.52,860.70 358.46,858.61 C356.52,856.67 352.97,854.47 350.97,854.28 C349.89,854.20 346.86,855.46 345.64,856.72 C344.35,858.10 343.03,861.71 342.94,863.54 C342.88,865.65 343.93,869.23 345.07,870.19 C345.80,870.77 347.46,871.23 348.45,871.18 C348.73,871.17 350.16,870.66 352.02,870.04" fill="none" stroke="rgb(255, 196, 61)" stroke-width="25.00" stroke-opacity="1.00" stroke-linejoin="round"/>
</g>
<g stroke-linecap="round" transform="translate(-37.00, 1.00)" id="vert">
<path d="M384.86,845.29 C385.62,837.62 389.05,829.44 390.80,826.33 C390.80,826.33 390.72,826.26 390.72,826.26" fill="none" stroke="rgb(96, 165, 97)" stroke-width="2.00" stroke-opacity="1.00" stroke-linejoin="round"/>
<path d="M387.38,834.06 C387.38,834.06 387.39,833.99 387.39,833.99 C387.65,833.74 388.35,833.20 388.94,832.82 C390.10,832.10 393.82,831.10 395.51,831.26 C398.73,831.63 405.48,835.84 406.31,835.68 C406.52,835.64 408.29,835.01 408.28,835.04 C408.28,835.04 408.14,835.05 408.14,835.05" fill="none" stroke="rgb(96, 165, 97)" stroke-width="3.00" stroke-opacity="1.00" stroke-linejoin="round"/>
<path d="M387.77,834.21 C387.78,834.29 387.79,834.35 387.80,834.38 C387.87,834.67 388.28,835.62 388.63,836.20 C389.39,837.42 391.80,839.44 393.09,840.04 C394.55,840.68 397.35,841.24 398.24,841.23 C400.41,841.16 403.72,839.99 404.92,839.22 C405.91,838.57 406.98,837.20 407.55,835.42 C407.55,835.42 407.48,835.51 407.48,835.51" fill="none" stroke="rgb(96, 165, 97)" stroke-width="3.00" stroke-opacity="1.00" stroke-linejoin="round"/>
<path d="M389.78,834.97 C390.60,835.38 392.75,837.01 392.84,837.06 C394.23,837.77 397.49,838.21 399.54,838.24 C402.80,838.25 405.82,836.79 405.86,836.73 C401.46,835.95 393.58,831.12 390.51,834.21 C390.50,834.23 390.47,834.28 390.43,834.37" fill="none" stroke="rgb(96, 165, 97)" stroke-width="6.00" stroke-opacity="1.00" stroke-linejoin="round"/>
<path d="M393.24,838.02 C393.38,838.17 393.51,838.28 393.63,838.36 C394.68,838.99 397.53,839.56 398.61,839.43 C399.08,839.36 399.97,839.09 400.54,838.85 C400.70,838.78 401.05,838.63 401.58,838.39" fill="none" stroke="rgb(96, 165, 97)" stroke-width="6.00" stroke-opacity="1.00" stroke-linejoin="round"/>
<path d="M390.71,826.12 C390.66,826.24 390.30,827.06 390.13,827.49 C386.87,836.04 384.97,844.44 385.32,845.94" fill="none" stroke="rgb(96, 165, 97)" stroke-width="3.00" stroke-opacity="1.00" stroke-linejoin="round"/>
</g>
<g stroke-linecap="round" transform="translate(-37.00, 1.00)" id="trait_separation">
<path d="M374.66,837.39 C374.90,837.42 375.51,837.36 376.94,837.18 C379.25,836.89 383.55,836.93 383.70,837.00 C383.79,837.04 383.91,837.10 384.08,837.17" fill="none" stroke="rgb(96, 165, 97)" stroke-width="2.00" stroke-opacity="1.00" stroke-linejoin="round"/>
<path d="M399.68,843.72 C399.75,843.78 399.98,843.95 400.51,844.32 C403.21,846.22 406.29,849.01 407.80,851.00 C410.25,854.27 414.43,863.24 415.40,868.33 C415.55,869.14 415.67,870.21 415.73,871.14" fill="none" stroke="rgb(96, 165, 97)" stroke-width="2.00" stroke-opacity="1.00" stroke-linejoin="round"/>
</g>
<g stroke-linecap="round" transform="translate(-1.00, 3.00)" id="orange">
<path d="M234.23,742.38 C234.43,742.39 238.46,738.88 241.38,736.47 C246.70,732.20 258.36,724.25 260.70,723.70 C261.96,723.44 263.98,724.28 265.49,726.09 C268.47,729.72 291.50,770.61 295.11,776.78 C301.41,787.13 327.42,825.82 330.23,829.34" fill="none" stroke="rgb(255, 196, 61)" stroke-width="20.00" stroke-opacity="1.00" stroke-linejoin="round"/>
<path d="M236.93,740.10 C236.71,740.24 235.24,741.33 234.74,741.78 C233.40,743.05 232.53,746.26 233.12,748.13 C234.14,751.23 241.71,760.71 246.78,765.33 C263.79,780.54 280.47,793.63 293.54,803.85 C306.75,814.18 320.97,823.54 328.70,829.26 C329.10,829.56 329.50,829.86 329.90,830.16" fill="none" stroke="rgb(255, 196, 61)" stroke-width="20.00" stroke-opacity="1.00" stroke-linejoin="round"/>
<path d="M244.94,744.91 C246.11,746.38 246.83,747.19 247.92,748.15 C267.06,764.77 292.24,788.86 293.34,789.68 C286.04,778.46 272.67,757.38 263.34,740.35 C261.85,737.68 259.63,733.98 258.97,733.54" fill="none" stroke="rgb(255, 196, 61)" stroke-width="20.00" stroke-opacity="1.00" stroke-linejoin="round"/>
</g>
<g stroke-linecap="round" id="vert">
<path d="M234.99,729.67 C235.01,729.73 235.03,729.77 235.04,729.81 C235.05,729.85 235.07,729.93 235.09,730.05 C231.75,730.82 227.59,729.55 227.59,729.46 C227.59,729.46 237.33,729.59 237.33,729.59 C237.33,729.59 230.38,721.02 230.38,721.02 C232.08,721.42 237.70,729.31 237.99,729.64 C237.30,728.22 237.68,726.60 237.76,725.99 C237.86,725.18 237.56,722.42 237.76,721.79 C237.86,721.47 238.49,721.12 238.62,721.06 C239.27,721.22 240.02,722.98 239.66,725.31 C239.42,726.71 239.09,728.58 239.11,728.96 C238.42,726.66 238.61,722.66 238.50,722.56 C238.45,722.53 238.38,722.45 238.29,722.31" fill="none" stroke="rgb(96, 165, 97)" stroke-width="3.00" stroke-opacity="1.00" stroke-linejoin="round"/>
<path d="M232.57,730.12 C232.65,730.19 233.09,730.34 233.91,730.53 C235.31,730.84 237.07,730.58 238.87,729.77 C239.23,729.60 239.71,729.33 240.34,728.96" fill="none" stroke="rgb(96, 165, 97)" stroke-width="4.00" stroke-opacity="1.00" stroke-linejoin="round"/>
<path d="M275.06,734.33 C275.00,734.49 274.59,735.03 273.88,735.81 C272.27,737.56 267.00,741.86 264.44,743.52 C261.09,745.65 257.72,747.87 257.40,748.05 C257.15,748.19 256.80,748.35 256.34,748.54" fill="none" stroke="rgb(96, 165, 97)" stroke-width="2.00" stroke-opacity="1.00" stroke-linejoin="round"/>
<path d="M272.76,748.49 C273.16,748.20 274.71,746.70 275.33,746.10 C277.17,744.33 278.67,743.45 278.73,743.42 C278.76,743.41 278.80,743.40 278.87,743.38" fill="none" stroke="rgb(96, 165, 97)" stroke-width="2.00" stroke-opacity="1.00" stroke-linejoin="round"/>
<path d="M273.53,756.55 C273.53,756.55 273.46,756.71 273.46,756.71 C274.22,756.40 274.93,755.94 276.23,754.87 C277.69,753.67 281.76,750.01 282.73,749.15 C282.90,749.00 282.98,748.90 282.99,748.84" fill="none" stroke="rgb(96, 165, 97)" stroke-width="2.00" stroke-opacity="1.00" stroke-linejoin="round"/>
<path d="M271.79,794.59 C271.79,794.59 271.72,794.70 271.72,794.70 C272.94,793.95 274.02,793.22 276.25,791.60 C279.52,789.22 283.76,786.14 284.72,785.45 C284.77,785.41 284.91,785.30 284.86,785.34" fill="none" stroke="rgb(96, 165, 97)" stroke-width="2.00" stroke-opacity="1.00" stroke-linejoin="round"/>
<path d="M288.29,811.71 C288.40,811.71 288.49,811.69 288.58,811.65 C289.05,811.43 294.40,807.79 296.85,806.04 C299.20,804.35 302.45,802.00 303.37,801.34 C303.72,801.09 304.06,800.83 304.41,800.58" fill="none" stroke="rgb(96, 165, 97)" stroke-width="2.00" stroke-opacity="1.00" stroke-linejoin="round"/>
<path d="M296.06,815.32 C296.14,815.31 296.44,815.17 296.89,814.93 C297.57,814.54 299.65,812.87 300.45,812.25 C300.90,811.90 301.70,811.29 302.85,810.44" fill="none" stroke="rgb(96, 165, 97)" stroke-width="2.00" stroke-opacity="1.00" stroke-linejoin="round"/>
<path d="M323.47,826.46 C323.55,826.47 323.66,826.40 323.81,826.27 C324.15,825.99 327.28,823.03 327.71,822.67 C328.04,822.39 328.56,822.00 329.26,821.51" fill="none" stroke="rgb(96, 165, 97)" stroke-width="2.00" stroke-opacity="1.00" stroke-linejoin="round"/>
</g>
<g stroke-linecap="round" transform="translate(-1.00, -1.00)" id="orange">
<path d="M281.16,828.82 C281.08,828.71 280.98,828.59 280.87,828.46 C279.29,826.63 275.68,824.36 274.39,824.31 C272.72,824.33 268.91,827.32 267.02,829.55 C263.91,833.32 258.65,844.35 256.65,851.19 C255.89,853.85 255.23,858.02 255.31,860.51 C255.44,862.75 257.81,868.72 260.28,870.99 C261.51,872.06 264.04,873.00 265.51,872.99 C267.53,872.92 271.47,871.20 271.53,871.26 C271.55,871.37 271.33,875.46 272.74,877.23 C273.37,877.98 276.63,879.30 279.01,878.95 C279.30,878.91 282.37,877.67 282.65,877.69 C282.97,878.15 285.07,882.12 285.98,882.58 C287.11,883.09 290.35,882.82 292.33,882.15 C295.02,881.19 299.65,878.11 302.68,874.87 C306.73,870.46 314.10,860.53 315.73,855.28 C316.60,852.33 316.45,847.93 315.71,845.98 C314.92,844.02 312.59,840.86 311.08,839.76 C309.20,838.44 305.42,837.87 303.69,838.38 C302.72,838.67 300.17,839.62 299.32,839.97 C299.26,839.73 299.69,835.41 299.21,834.00 C298.74,832.71 296.44,830.20 294.91,829.18 C293.43,828.22 290.07,826.97 288.71,826.90 C285.83,826.83 281.51,830.01 281.42,830.05 C281.35,830.08 281.28,830.05 281.20,829.96" fill="none" stroke="rgb(255, 196, 61)" stroke-width="8.00" stroke-opacity="1.00" stroke-linejoin="round"/>
<path d="M278.10,836.10 C277.67,835.69 276.62,834.88 276.02,834.59 C274.56,833.91 272.26,834.69 271.14,835.50 C270.04,836.33 266.91,840.83 265.82,843.34 C264.45,846.61 262.38,857.27 262.72,860.70 C262.94,862.69 264.42,864.98 265.96,865.72 C267.52,866.41 271.48,866.26 273.73,865.56 C274.71,865.26 277.75,864.22 278.10,864.29 C278.16,864.38 277.51,870.26 278.02,870.88 C279.84,872.77 284.30,872.09 288.43,871.08 C288.43,871.08 289.50,874.37 289.50,874.37 C290.63,874.89 294.51,873.26 297.05,870.60 C299.21,868.30 302.72,862.69 303.55,861.11 C304.99,858.30 306.91,853.20 307.24,850.54 C307.55,847.87 306.18,844.92 305.02,844.52 C303.23,844.01 297.06,845.49 295.77,845.68 C294.91,844.97 294.32,838.65 293.67,837.01 C292.96,835.32 290.23,833.16 288.69,833.12 C286.71,833.14 281.66,836.28 279.27,839.12 C277.34,841.47 273.77,847.99 273.23,849.71 C272.63,851.74 272.59,854.70 273.05,855.49 C273.78,856.57 277.83,856.79 281.96,855.99 C291.99,854.02 295.82,853.73 296.54,854.33 C296.96,855.11 296.48,857.49 295.62,858.91 C293.41,862.43 291.14,862.59 290.54,862.37 C290.54,862.37 282.49,840.99 282.49,840.99 C282.49,840.99 282.18,841.54 282.18,841.54" fill="none" stroke="rgb(255, 196, 61)" stroke-width="15.00" stroke-opacity="1.00" stroke-linejoin="round"/>
</g>
<g stroke-linecap="round" transform="translate(-1.00, -1.00)" id="vert">
<path d="M281.88,828.79 C281.85,828.85 281.83,828.91 281.81,828.97 C281.61,829.57 280.55,832.35 280.08,833.29 C279.65,834.15 276.01,840.87 274.66,844.95 C272.83,850.58 269.24,865.55 268.27,871.02 C268.27,871.02 268.23,870.84 268.23,870.84" fill="none" stroke="rgb(96, 165, 97)" stroke-width="2.00" stroke-opacity="1.00" stroke-linejoin="round"/>
<path d="M303.56,837.50 C303.52,837.62 303.45,837.82 303.34,838.11 C301.23,844.16 297.12,855.57 293.23,863.01 C288.72,871.44 285.49,877.05 283.80,879.62 C283.80,879.62 283.71,879.55 283.71,879.55" fill="none" stroke="rgb(96, 165, 97)" stroke-width="2.00" stroke-opacity="1.00" stroke-linejoin="round"/>
<path d="M297.85,823.36 C297.82,823.31 297.88,823.17 298.03,822.95 C299.60,820.69 302.76,818.32 304.33,817.66 C306.26,816.87 309.87,816.65 311.70,817.22 C313.20,817.73 315.65,819.91 316.29,821.11 C316.94,822.38 316.95,824.01 316.52,824.47 C315.80,825.11 312.90,825.00 309.96,823.72 C304.46,821.35 300.01,822.53 298.20,823.45 C298.52,822.81 303.39,819.18 306.13,818.68 C308.80,818.25 312.62,819.86 313.30,820.80 C313.92,821.73 313.88,822.56 313.73,822.84 C313.73,822.84 303.21,820.25 303.21,820.25 C303.82,820.00 310.20,820.42 312.63,821.19 C314.37,821.76 315.94,823.04 316.14,823.32 C316.10,823.32 315.13,823.39 314.51,823.10 C313.66,822.71 312.81,822.32 311.95,821.92" fill="none" stroke="rgb(96, 165, 97)" stroke-width="4.00" stroke-opacity="1.00" stroke-linejoin="round"/>
</g>
<g stroke-linecap="round" transform="translate(-163.00, 2.00)" id="orange">
<path d="M33.14,436.21 C32.98,436.27 32.88,436.32 32.83,436.34 C32.74,436.40 32.67,436.46 32.63,436.54 C32.62,436.57 32.60,436.62 32.60,436.71" fill="none" stroke="rgb(96, 165, 97)" stroke-width="4.00" stroke-opacity="1.00" stroke-linejoin="round"/>
<path d="M462.35,742.46 C462.35,742.46 462.50,742.72 462.50,742.72" fill="none" stroke="rgb(255, 196, 61)" stroke-width="7.20" stroke-opacity="1.00" stroke-linejoin="round"/>
<path d="M462.50,742.72 L491.88,793.16" fill="none" stroke="rgb(255, 196, 61)" stroke-width="7.20" stroke-opacity="1.00" stroke-linejoin="round"/>
<path d="M491.94,793.32" fill="none" stroke="rgb(255, 196, 61)" stroke-width="7.20" stroke-opacity="1.00" stroke-linejoin="round"/>
<path d="M462.50,742.22 C463.28,741.94 464.39,741.62 465.43,741.41 C467.45,741.02 473.15,741.13 476.42,742.09 C481.78,743.72 491.28,749.99 493.49,752.47 C496.03,755.35 499.74,762.11 500.58,766.79 C501.09,769.72 500.82,775.41 500.40,777.32 C499.03,783.05 496.27,787.61 492.52,792.79 C492.50,792.81 492.48,792.87 492.50,792.85" fill="none" stroke="rgb(255, 196, 61)" stroke-width="7.20" stroke-opacity="1.00" stroke-linejoin="round"/>
<path d="M467.47,746.10 C469.19,746.26 472.40,746.98 473.95,747.59 C477.60,749.06 482.37,752.10 484.58,754.16 C486.14,755.66 489.20,759.63 490.25,761.74 C490.82,762.95 492.01,766.94 492.59,769.47 C493.84,775.17 492.92,785.54 492.91,785.55 C492.91,785.55 473.40,750.60 473.40,750.60" fill="none" stroke="rgb(255, 196, 61)" stroke-width="12.34" stroke-opacity="1.00" stroke-linejoin="round"/>
</g>
<g stroke-linecap="round" transform="translate(-163.00, 2.00)" id="vert">
<path d="M463.75,742.83 C463.75,742.81 464.23,742.64 464.65,742.52 C466.52,742.01 471.51,741.83 473.26,742.21 C475.43,742.72 482.32,745.32 484.12,746.08 C486.65,747.19 490.56,750.02 492.96,752.58 C494.07,753.79 496.04,756.88 496.77,758.71 C498.34,762.78 499.44,768.78 499.48,772.04 C499.49,777.68 492.37,792.19 492.27,792.31 C492.25,792.33 492.20,792.36 492.11,792.40" fill="none" stroke="rgb(96, 165, 97)" stroke-width="2.00" stroke-opacity="1.00" stroke-linejoin="round"/>
<path d="M475.55,764.14 C475.77,764.56 475.98,764.98 476.20,765.41 C477.28,767.50 477.58,767.91 477.63,767.97 C477.98,767.79 478.64,766.47 478.39,765.83 C477.86,764.62 475.58,763.65 475.47,763.75" fill="none" stroke="rgb(96, 165, 97)" stroke-width="3.00" stroke-opacity="1.00" stroke-linejoin="round"/>
<path d="M478.70,765.90 C478.96,766.23 480.91,767.35 484.11,769.68 C488.28,772.75 493.45,776.10 494.78,777.01 C494.78,777.01 494.63,777.06 494.63,777.06" fill="none" stroke="rgb(96, 165, 97)" stroke-width="2.00" stroke-opacity="1.00" stroke-linejoin="round"/>
<path d="M479.92,764.00 C478.99,764.48 478.77,764.37 480.06,763.82 C481.13,763.37 492.60,760.88 493.38,760.87 C493.38,760.87 493.45,760.93 493.45,760.93" fill="none" stroke="rgb(96, 165, 97)" stroke-width="2.00" stroke-opacity="1.00" stroke-linejoin="round"/>
<path d="M476.80,762.46 C477.22,760.94 477.49,759.88 477.75,758.52 C478.01,757.20 479.38,748.48 479.39,748.44" fill="none" stroke="rgb(96, 165, 97)" stroke-width="2.00" stroke-opacity="1.00" stroke-linejoin="round"/>
</g>
<g stroke-linecap="round" id="orange">
<path d="M351.53,728.26 C351.09,728.09 350.18,727.78 349.56,727.63 C347.80,727.23 344.72,727.96 343.47,728.98 C342.55,729.78 340.78,732.98 340.24,735.96 C339.88,738.04 339.96,743.99 340.26,746.59 C340.54,748.84 341.89,754.16 343.02,756.87 C344.21,759.65 347.26,764.08 349.04,765.33 C350.70,766.43 354.41,763.92 355.27,762.81 C355.39,762.79 357.25,764.17 358.38,764.25 C359.87,764.30 363.82,762.15 365.74,759.94 C367.87,757.42 370.28,751.58 370.74,748.24 C371.17,744.80 370.46,738.87 369.51,736.55 C368.57,734.37 365.48,731.01 363.72,729.77 C362.32,728.81 359.83,727.94 358.89,728.04 C356.18,728.38 354.22,731.53 354.04,732.45 C354.02,732.52 354.02,732.57 354.03,732.62" fill="none" stroke="rgb(255, 196, 61)" stroke-width="7.00" stroke-opacity="1.00" stroke-linejoin="round"/>
<path d="M351.95,737.88 C351.96,737.34 350.56,735.49 349.09,734.24 C347.71,733.09 346.14,732.86 345.25,733.42 C344.26,734.13 341.63,738.70 341.34,741.45 C341.08,744.42 342.69,752.02 343.78,755.14 C344.51,757.19 346.36,760.24 347.34,761.06 C348.35,761.86 350.87,762.01 352.19,761.34 C353.70,760.52 356.91,756.83 357.08,756.75 C357.36,756.70 359.54,758.87 360.01,758.84 C360.76,758.71 362.83,756.57 363.93,753.42 C365.01,750.24 365.66,742.73 365.28,740.33 C364.95,738.45 363.56,735.40 362.57,734.52 C361.42,733.56 358.58,732.92 357.52,733.56 C356.49,734.22 355.24,736.75 355.06,737.79 C354.29,742.77 355.22,753.36 355.47,755.17 C355.47,755.17 359.11,737.15 359.11,737.15 C359.11,737.15 359.92,755.20 359.92,755.20 C360.47,752.79 360.85,745.91 360.57,743.11 C359.90,736.65 357.57,735.01 356.66,734.86 C355.44,735.59 354.87,735.99 354.54,736.60 C353.14,739.26 352.25,746.02 352.60,748.98 C353.02,752.21 353.84,753.39 354.18,753.66 C354.92,753.43 356.02,750.18 356.05,747.02 C356.05,743.45 354.81,737.37 353.50,734.60 C352.88,733.31 352.11,732.51 351.20,732.00 C351.20,732.00 350.05,732.22 350.05,732.22 C348.40,735.07 347.39,746.75 347.94,750.70 C348.52,754.67 350.30,758.70 351.49,759.60 C352.98,759.33 355.01,755.82 355.38,752.41 C356.60,740.34 352.40,734.22 351.40,733.02 C349.73,733.84 348.76,734.94 348.22,737.05 C347.25,740.94 346.69,748.49 347.20,751.50 C347.52,753.34 349.23,756.87 350.11,757.68 C351.00,758.44 353.97,756.85 355.37,754.33 C355.97,753.22 356.77,750.98 357.01,749.75 C357.09,749.37 357.21,748.57 357.38,747.36" fill="none" stroke="rgb(255, 196, 61)" stroke-width="8.00" stroke-opacity="1.00" stroke-linejoin="round"/>
</g>
<g stroke-linecap="round" id="vert">
<path d="M355.24,730.36 C355.24,730.36 355.22,730.25 355.22,730.25 C355.22,730.24 355.20,730.28 355.21,730.30 C355.51,734.53 355.74,739.54 355.90,743.27 C356.27,751.33 355.66,759.32 355.40,761.27 C355.36,761.58 355.27,762.04 355.15,762.64" fill="none" stroke="rgb(96, 165, 97)" stroke-width="2.00" stroke-opacity="1.00" stroke-linejoin="round"/>
<path d="M354.35,724.61 C354.73,723.75 355.53,721.98 355.95,721.08 C356.80,719.25 357.88,716.25 357.88,716.25 C357.88,716.25 357.80,716.40 357.80,716.40" fill="none" stroke="rgb(96, 165, 97)" stroke-width="3.00" stroke-opacity="1.00" stroke-linejoin="round"/>
<path d="M357.82,719.14 C357.82,719.14 357.70,718.99 357.70,718.99 C357.68,718.89 359.19,718.61 360.34,718.60 C360.49,718.60 367.78,719.76 371.07,719.62 C372.15,719.57 373.50,719.39 373.91,719.28 C373.99,719.25 374.09,719.22 374.18,719.20" fill="none" stroke="rgb(96, 165, 97)" stroke-width="4.00" stroke-opacity="1.00" stroke-linejoin="round"/>
<path d="M357.35,720.77 C357.35,720.77 357.39,720.98 357.39,720.98 C357.81,721.34 360.37,722.35 361.95,722.51 C365.74,722.88 372.22,721.93 372.93,720.89 C373.05,720.71 373.15,720.36 373.24,719.85 C371.37,720.30 367.73,720.79 363.68,720.29 C360.92,719.83 357.96,719.35 357.59,719.39 C357.97,719.80 359.32,720.45 360.85,720.90 C361.37,721.05 364.26,721.57 364.66,721.58 C365.40,721.60 370.10,721.24 371.81,721.11" fill="none" stroke="rgb(96, 165, 97)" stroke-width="3.00" stroke-opacity="1.00" stroke-linejoin="round"/>
<path d="M354.58,723.91 C354.58,723.91 354.45,723.91 354.45,723.91 C354.31,724.00 354.11,724.39 353.95,724.95 C353.87,725.22 353.83,725.51 353.83,725.59" fill="none" stroke="rgb(96, 165, 97)" stroke-width="4.00" stroke-opacity="1.00" stroke-linejoin="round"/>
<path d="M354.27,725.02 C354.24,725.00 354.12,725.35 353.92,726.03 C353.89,726.15 353.86,726.24 353.86,726.28 C353.86,726.29 353.85,726.32 353.85,726.39" fill="none" stroke="rgb(96, 165, 97)" stroke-width="4.00" stroke-opacity="1.00" stroke-linejoin="round"/>
</g>
</svg>
